<svg xmlns="http://www.w3.org/2000/svg" version="1.1" xmlns:xlink="http://www.w3.org/1999/xlink" xmlns:svgjs="http://svgjs.com/svgjs" width="1200pt" height="1200pt"><svg xmlns:dc="http://purl.org/dc/elements/1.1/" xmlns:cc="http://creativecommons.org/ns#" xmlns:rdf="http://www.w3.org/1999/02/22-rdf-syntax-ns#" xmlns:svg="http://www.w3.org/2000/svg" xmlns="http://www.w3.org/2000/svg" xmlns:sodipodi="http://sodipodi.sourceforge.net/DTD/sodipodi-0.dtd" xmlns:inkscape="http://www.inkscape.org/namespaces/inkscape" width="1200pt" height="1200pt" version="1.1" viewBox="0 0 1200 1200" id="SvgjsSvg1011" sodipodi:docname="noun-welding-3214348.svg" inkscape:version="1.0.2 (e86c8708, 2021-01-15)">
  <metadata id="SvgjsMetadata1010">
    <rdf:rdf>
      <cc:work rdf:about="">
        <dc:format>image/svg+xml</dc:format>
        <dc:type rdf:resource="http://purl.org/dc/dcmitype/StillImage"></dc:type>
      </cc:work>
    </rdf:rdf>
  </metadata>
  <defs id="SvgjsDefs1009"></defs>
  <sodipodi:namedview pagecolor="#ffffff" bordercolor="#666666" borderopacity="1" objecttolerance="10" gridtolerance="10" guidetolerance="10" inkscape:pageopacity="0" inkscape:pageshadow="2" inkscape:window-width="1440" inkscape:window-height="847" id="SvgjsSodipodi:namedview1008" showgrid="false" inkscape:zoom="0.14738757" inkscape:cx="793.21517" inkscape:cy="1817.4174" inkscape:window-x="0" inkscape:window-y="25" inkscape:window-maximized="1" inkscape:current-layer="svg26" inkscape:document-rotation="0"></sodipodi:namedview>
  <g id="SvgjsG1007" style="stroke:#ffffff;stroke-opacity:1;fill:#000000">
    <path d="m502 222.67h-192.33c-8.8438 0-17.32 3.5117-23.57 9.7617-6.2539 6.25-9.7656 14.73-9.7656 23.57v240c-0.1875 1.4375-0.1875 2.8945 0 4.332-0.15625 1.6641-0.15625 3.3398 0 5v640.34c0 8.8398 3.5117 17.316 9.7656 23.57 6.25 6.25 14.727 9.7617 23.57 9.7617 106 0 192.33-77 192.33-171.67v-363.66c-2.082-42.727-19.398-83.297-48.809-114.36s-68.977-50.566-111.52-54.977v-187.66h160.33c10.07 2.9375 20.941 0.96094 29.332-5.3359 8.3945-6.293 13.336-16.172 13.336-26.664 0-10.492-4.9414-20.371-13.336-26.668-8.3906-6.2969-19.262-8.2695-29.332-5.332z" id="SvgjsPath1006" style="stroke:#ffffff;stroke-opacity:1;fill:#000000"></path>
    <path d="m181.33 472c-8.8398 0-17.316 3.5117-23.57 9.7617-6.25 6.2539-9.7617 14.73-9.7617 23.57v128c2.0547 10.125 8.6914 18.727 17.965 23.285 9.2695 4.5547 20.133 4.5547 29.406 0 9.2695-4.5586 15.906-13.16 17.961-23.285v-129.33c-0.32812-8.3828-3.8047-16.332-9.7344-22.262-5.9336-5.9336-13.883-9.4102-22.266-9.7383z" id="SvgjsPath1005" style="stroke:#ffffff;stroke-opacity:1;fill:#000000"></path>
    <path d="m1018.7 222.33h-257.34c-9.4805 2.5781-17.344 9.207-21.484 18.117-4.1406 8.9102-4.1406 19.191 0 28.102 4.1406 8.9102 12.004 15.539 21.484 18.117h257.34c9.4805-2.5781 17.344-9.207 21.484-18.117 4.1406-8.9102 4.1406-19.191 0-28.102-4.1406-8.9102-12.004-15.539-21.484-18.117z" id="SvgjsPath1004" style="stroke:#ffffff;stroke-opacity:1;fill:#000000"></path>
    <path d="m666.67 222.33c8.5078 0.097657 16.691-3.2734 22.664-9.332l136.33-136h0.003907c4.582-8.7266 5.0664-19.031 1.3281-28.148-3.7422-9.1172-11.324-16.113-20.715-19.105-9.3867-2.9961-19.621-1.6836-27.949 3.5859l-136 133.34c-5.7578 6.3789-8.832 14.738-8.5742 23.332 0.25781 8.5938 3.8242 16.754 9.957 22.781 6.1328 6.0234 14.355 9.4453 22.953 9.5508z" id="SvgjsPath1003" style="stroke:#ffffff;stroke-opacity:1;fill:#000000"></path>
    <path d="m687.67 296c-6.1641-5.7148-14.262-8.8945-22.668-8.8945s-16.504 3.1797-22.668 8.8945c-5.7148 6.1641-8.8906 14.262-8.8906 22.668s3.1758 16.5 8.8906 22.664l136 136.33v0.003907c6.1836 5.8125 14.348 9.0469 22.836 9.0469 8.4844 0 16.648-3.2344 22.832-9.0469 5.7148-6.1641 8.8945-14.262 8.8945-22.668s-3.1797-16.504-8.8945-22.668z" id="SvgjsPath1002" style="stroke:#ffffff;stroke-opacity:1;fill:#000000"></path>
    <path d="m598.33 367c0 17.672-14.324 32-32 32-17.672 0-32-14.328-32-32s14.328-32 32-32c17.676 0 32 14.328 32 32" id="SvgjsPath1001" style="stroke:#ffffff;stroke-opacity:1;fill:#000000"></path>
    <path d="m598.33 142.33c0 17.676-14.324 32-32 32-17.672 0-32-14.324-32-32 0-17.672 14.328-32 32-32 17.676 0 32 14.328 32 32" id="SvgjsPath1000" style="stroke:#ffffff;stroke-opacity:1;fill:#000000"></path>
  </g>
</svg><style>@media (prefers-color-scheme: light) { :root { filter: none; } }
@media (prefers-color-scheme: dark) { :root { filter: contrast(0.3846153846153846) brightness(4.5); } }
</style></svg>